<mxfile host="app.diagrams.net" modified="2024-01-06T06:38:34.693Z" agent="Mozilla/5.0 (Windows NT 10.0; Win64; x64) AppleWebKit/537.36 (KHTML, like Gecko) Chrome/120.0.0.0 Safari/537.36" etag="0M8KEtOKo17iZejklMi8" version="22.1.17" type="github">
  <diagram name="第 1 页" id="N4TBkhwULDpyoCbe3_ii">
    <mxGraphModel dx="712" dy="786" grid="0" gridSize="10" guides="1" tooltips="1" connect="1" arrows="1" fold="1" page="0" pageScale="1" pageWidth="827" pageHeight="1169" math="0" shadow="0">
      <root>
        <mxCell id="0" />
        <mxCell id="1" parent="0" />
        <mxCell id="ZXD4sCwjrwZgdhjQM5zM-29" value="User" style="swimlane;fontStyle=1;align=center;verticalAlign=top;childLayout=stackLayout;horizontal=1;startSize=28.4;horizontalStack=0;resizeParent=1;resizeParentMax=0;resizeLast=0;collapsible=0;marginBottom=0;fontSize=16;" vertex="1" parent="1">
          <mxGeometry x="42" y="20" width="436" height="148.4" as="geometry" />
        </mxCell>
        <mxCell id="ZXD4sCwjrwZgdhjQM5zM-30" value="+username: string" style="text;strokeColor=none;fillColor=none;align=left;verticalAlign=top;spacingLeft=4;spacingRight=4;overflow=hidden;rotatable=0;points=[[0,0.5],[1,0.5]];portConstraint=eastwest;fontSize=16;" vertex="1" parent="ZXD4sCwjrwZgdhjQM5zM-29">
          <mxGeometry y="28.4" width="436" height="28" as="geometry" />
        </mxCell>
        <mxCell id="ZXD4sCwjrwZgdhjQM5zM-31" value="+notifications: Notification[]" style="text;strokeColor=none;fillColor=none;align=left;verticalAlign=top;spacingLeft=4;spacingRight=4;overflow=hidden;rotatable=0;points=[[0,0.5],[1,0.5]];portConstraint=eastwest;fontSize=16;" vertex="1" parent="ZXD4sCwjrwZgdhjQM5zM-29">
          <mxGeometry y="56.4" width="436" height="28" as="geometry" />
        </mxCell>
        <mxCell id="ZXD4sCwjrwZgdhjQM5zM-32" style="line;strokeWidth=1;fillColor=none;align=left;verticalAlign=middle;spacingTop=-1;spacingLeft=3;spacingRight=3;rotatable=0;labelPosition=right;points=[];portConstraint=eastwest;strokeColor=inherit;fontSize=16;" vertex="1" parent="ZXD4sCwjrwZgdhjQM5zM-29">
          <mxGeometry y="84.4" width="436" height="8" as="geometry" />
        </mxCell>
        <mxCell id="ZXD4sCwjrwZgdhjQM5zM-33" value="+receiveNewMessageNotification(message: Message): void" style="text;strokeColor=none;fillColor=none;align=left;verticalAlign=top;spacingLeft=4;spacingRight=4;overflow=hidden;rotatable=0;points=[[0,0.5],[1,0.5]];portConstraint=eastwest;fontSize=16;" vertex="1" parent="ZXD4sCwjrwZgdhjQM5zM-29">
          <mxGeometry y="92.4" width="436" height="28" as="geometry" />
        </mxCell>
        <mxCell id="ZXD4sCwjrwZgdhjQM5zM-34" value="+viewNotifications(): Notification[]" style="text;strokeColor=none;fillColor=none;align=left;verticalAlign=top;spacingLeft=4;spacingRight=4;overflow=hidden;rotatable=0;points=[[0,0.5],[1,0.5]];portConstraint=eastwest;fontSize=16;" vertex="1" parent="ZXD4sCwjrwZgdhjQM5zM-29">
          <mxGeometry y="120.4" width="436" height="28" as="geometry" />
        </mxCell>
        <mxCell id="ZXD4sCwjrwZgdhjQM5zM-35" value="Notification" style="swimlane;fontStyle=1;align=center;verticalAlign=top;childLayout=stackLayout;horizontal=1;startSize=26.444444444444443;horizontalStack=0;resizeParent=1;resizeParentMax=0;resizeLast=0;collapsible=0;marginBottom=0;fontSize=16;" vertex="1" parent="1">
          <mxGeometry x="188" y="239" width="144" height="117.44444444444444" as="geometry" />
        </mxCell>
        <mxCell id="ZXD4sCwjrwZgdhjQM5zM-36" value="+type: string" style="text;strokeColor=none;fillColor=none;align=left;verticalAlign=top;spacingLeft=4;spacingRight=4;overflow=hidden;rotatable=0;points=[[0,0.5],[1,0.5]];portConstraint=eastwest;fontSize=16;" vertex="1" parent="ZXD4sCwjrwZgdhjQM5zM-35">
          <mxGeometry y="26.444444444444443" width="144" height="26" as="geometry" />
        </mxCell>
        <mxCell id="ZXD4sCwjrwZgdhjQM5zM-37" value="+content: string" style="text;strokeColor=none;fillColor=none;align=left;verticalAlign=top;spacingLeft=4;spacingRight=4;overflow=hidden;rotatable=0;points=[[0,0.5],[1,0.5]];portConstraint=eastwest;fontSize=16;" vertex="1" parent="ZXD4sCwjrwZgdhjQM5zM-35">
          <mxGeometry y="52.44444444444444" width="144" height="26" as="geometry" />
        </mxCell>
        <mxCell id="ZXD4sCwjrwZgdhjQM5zM-38" value="+timestamp: Date" style="text;strokeColor=none;fillColor=none;align=left;verticalAlign=top;spacingLeft=4;spacingRight=4;overflow=hidden;rotatable=0;points=[[0,0.5],[1,0.5]];portConstraint=eastwest;fontSize=16;" vertex="1" parent="ZXD4sCwjrwZgdhjQM5zM-35">
          <mxGeometry y="78.44444444444444" width="144" height="26" as="geometry" />
        </mxCell>
        <mxCell id="ZXD4sCwjrwZgdhjQM5zM-39" style="line;strokeWidth=1;fillColor=none;align=left;verticalAlign=middle;spacingTop=-1;spacingLeft=3;spacingRight=3;rotatable=0;labelPosition=right;points=[];portConstraint=eastwest;strokeColor=inherit;fontSize=16;" vertex="1" parent="ZXD4sCwjrwZgdhjQM5zM-35">
          <mxGeometry y="104.44444444444444" width="144" height="13" as="geometry" />
        </mxCell>
        <mxCell id="ZXD4sCwjrwZgdhjQM5zM-40" value="has 0..*" style="curved=1;startArrow=none;endArrow=open;endSize=12;exitX=0.5001791857798165;exitY=1;entryX=0.5005425347222222;entryY=0;rounded=0;fontSize=12;" edge="1" parent="1" source="ZXD4sCwjrwZgdhjQM5zM-29" target="ZXD4sCwjrwZgdhjQM5zM-35">
          <mxGeometry relative="1" as="geometry">
            <Array as="points" />
          </mxGeometry>
        </mxCell>
      </root>
    </mxGraphModel>
  </diagram>
</mxfile>
